<?xml version="1.0" encoding="UTF-8" standalone="no"?>
<!DOCTYPE svg PUBLIC "-//W3C//DTD SVG 1.1//EN" "http://www.w3.org/Graphics/SVG/1.1/DTD/svg11.dtd">
<svg width="100%" height="100%" viewBox="0 0 800 436" version="1.1" xmlns="http://www.w3.org/2000/svg" xmlns:xlink="http://www.w3.org/1999/xlink" xml:space="preserve" xmlns:serif="http://www.serif.com/" style="fill-rule:evenodd;clip-rule:evenodd;stroke-linejoin:round;stroke-miterlimit:2;">
    <g transform="matrix(14.6997,0,0,14.6997,3488.44,-11153.3)">
        <path d="M-209.968,788.369C-210.291,788.369 -210.626,788.355 -210.967,788.327C-216.596,787.837 -218.845,783.908 -221.438,781.802C-224.222,779.535 -228.034,777.157 -237.313,776.431C-237.313,776.431 -232.6,769.04 -231.602,767.425C-230.289,765.293 -228.941,762.292 -223.84,762.292C-223.37,762.292 -222.871,762.317 -222.334,762.375L-228.533,772.151C-228.533,772.151 -221.441,773.311 -217.265,777.167C-214.667,779.571 -214.376,779.815 -213.374,780.84C-211.172,782.99 -209.193,783.733 -207.513,783.733C-203.743,783.733 -201.461,779.994 -201.461,779.994C-201.461,779.994 -203.038,780.688 -204.92,780.688C-206.242,780.688 -207.716,780.344 -208.908,779.181C-211.836,776.306 -212.608,775.546 -212.608,775.546C-212.608,775.546 -215.935,771.881 -223.259,769.682L-220.214,764.898C-219.189,763.18 -215.973,758.74 -210.235,758.74C-209.909,758.74 -209.575,758.754 -209.237,758.781C-203.608,759.272 -201.352,763.201 -198.765,765.309C-195.976,767.576 -192.167,769.955 -182.89,770.677C-182.89,770.677 -187.603,778.072 -188.599,779.687C-189.915,781.818 -191.262,784.82 -196.36,784.82C-196.83,784.82 -197.332,784.795 -197.87,784.737L-191.668,774.961C-191.668,774.961 -198.759,773.804 -202.932,769.945C-205.537,767.54 -205.825,767.297 -206.829,766.275C-209.031,764.125 -211.008,763.382 -212.687,763.382C-216.458,763.382 -218.74,767.12 -218.74,767.12C-218.74,767.12 -217.166,766.424 -215.28,766.424C-213.956,766.424 -212.482,766.768 -211.295,767.934C-208.365,770.809 -207.59,771.566 -207.59,771.566C-207.59,771.566 -204.268,775.231 -196.939,777.431L-199.987,782.217C-201.012,783.932 -204.23,788.372 -209.968,788.372"/>
    </g>
</svg>
